<?xml version="1.0" encoding="UTF-8"?>
<svg id="Layer_1" data-name="Layer 1" xmlns="http://www.w3.org/2000/svg" xmlns:xlink="http://www.w3.org/1999/xlink" viewBox="0 0 980 980">
  <defs>
    <style>
      .cls-1 {
        fill: none;
        stroke: url(#linear-gradient-2);
        stroke-width: 23px;
      }

      .cls-1, .cls-2 {
        stroke-miterlimit: 10;
      }

      .cls-2 {
        fill: url(#linear-gradient);
        stroke: #fff;
      }
    </style>
    <linearGradient id="linear-gradient" x1="386.44" y1="449.06" x2="659.99" y2="449.06" gradientUnits="userSpaceOnUse">
      <stop offset="0" stop-color="#15173d"/>
      <stop offset="1" stop-color="#982598"/>
    </linearGradient>
    <linearGradient id="linear-gradient-2" x1="259.8" y1="449.06" x2="758.23" y2="449.06" gradientUnits="userSpaceOnUse">
      <stop offset="0" stop-color="#191740"/>
      <stop offset="1" stop-color="#8b248f"/>
    </linearGradient>
  </defs>
  <path class="cls-2" d="M386.53,421.43l-.1,189.15c0,7.43,1.98,13.52,9.06,15.12,1.81.62,3.84.92,6.02.93l156.69.44c34.94.1,67.06-14.11,85.67-42.53,30.46-46.5,16.51-106.41-31.62-135.51,33.35-19.4,51.89-56.85,46.9-94.62-6.6-49.96-49.29-83.57-98.86-83.37l-162.71.67c-6.74.03-10.32,7.53-10.16,13.34.12,4.73,4.89,11.57,11.15,11.59l174.6.47c22.65,2.85,42.35,16.31,53.07,36.23,10.73,19.92,11.14,43.83,1.13,64.15-4.37,8.49-10.29,15.95-17.3,21.99,1.17-22.79-16.88-45.6-41.45-45.64l-142.1-.18c-20.72,1.63-37.33,17.38-39.99,38.06v9.71M411.33,419.1c-1.06-9.79,5.96-17.8,15.4-20.3l140.82.08c10.48,0,17.42,9.98,17.22,19.31-.18,8.72-7.59,17.79-17.51,17.81l-101.17.19c-18.27,35.04-18.59,74.52,1.34,109.18,16.77,29.17,48.08,50.96,84.43,54.21,5.35.47,11.05.27,16.75-.03,7.02-.37,10.94-9.06,9.6-14.71-1.66-7.01-7.54-10.23-14.64-10.14-45.1.61-82.27-34.57-85.53-79.49-.85-11.57,1.37-22.89,4.78-33.8l76.79.24c.91.2,1.87.29,2.87.25,36.27-1.31,67.63,26.04,71.68,61.46,2.53,22.2-5.01,43.09-21.39,58.66-10.59,10.06-25.15,18.85-41.07,18.91l-160.36.6v-182.43"/>
  <path class="cls-1" d="M271.3,449.06c0-131.29,106.43-237.72,237.72-237.72s237.72,106.43,237.72,237.72-106.43,237.72-237.72,237.72-237.72-106.43-237.72-237.72"/>
</svg>